# xmcd CD database file
#
# Track frame offsets:
#	150
#	12379
#	26445
#	36155
#	52169
#	65946
#	78135
#	90257
#	101728
#	111080
#	123838
#	134009
#	145950
#	155482
#	167863
#	178863
#	187263
#	197558
#	209680
#	221168
#	231196
#	243300
#	252751
#	263303
#	277990
#	288003
#	296420
#	308595
#	315683
#	324770
#
# Disc length: 4452 seconds
#
# Revision: 3
# Processed by: cddbd v1.5.2PL0 Copyright (c) Steve Scherf et al.
# Submitted via: CDex 1.81
#
DISCID=b611621e
DTITLE=Elvis Presley - The Real.....  Elvis [CD2]
DYEAR=2011
DGENRE=Rock
TTITLE0=Love Me Tender
TTITLE1=Are You Lonesome Tonight
TTITLE2=Heartbreak Hotel
TTITLE3=Fever
TTITLE4=Can't Help Falling In Love
TTITLE5=Blue Moon
TTITLE6=Blueberry Hill
TTITLE7=Have I Told You Lately That I Love You
TTITLE8=Wooden Heart
TTITLE9=Don't
TTITLE10=Any Way You Want Me (That's How I Will Be)
TTITLE11=I Need You So
TTITLE12=True Love
TTITLE13=Love Me
TTITLE14=Anyplace Is Paradise
TTITLE15=As Long As I Have You
TTITLE16=Baby Let's Play House
TTITLE17=A Mess Of Blues
TTITLE18=Trying To Get To You
TTITLE19=Loving You
TTITLE20=I Want You, I Need You, I Love You
TTITLE21=I Need Your Love Tonight
TTITLE22=Stuck On You
TTITLE23=It's Now Or Never
TTITLE24=Tonight Is So Right For Love
TTITLE25=I Beg Of You
TTITLE26=I'm Left, You're Right, She's Gone
TTITLE27=Dirty, Dirty Feeling
TTITLE28=Make Me Know It
TTITLE29=Rock A Hula Baby
EXTD=Sony Music - 2011 YEAR: 2011
EXTT0=1956-08-24, Fox Stage 1, Hollywood CA
EXTT1=1960-04-03, RCA Studio B, Nashville TN
EXTT2=1956-01-10, RCA Studios, Nashville TN
EXTT3=1960-04-03, RCA Studio B, Nashville TN
EXTT4=1961-03-22, Radio Recorders, Hollywood CA
EXTT5=1954-08-19, Sun Studio, Memphis TN
EXTT6=1957-01-18, Paramount Soundstage, Hollywood CA
EXTT7=1957-01-19, Radio Recorders, Hollywood CA
EXTT8=1960-04-28, RCA Studios, Hollywood CA
EXTT9=1957-09-06, Radio Recorders, Hollywood CA
EXTT10=1956-07-02, RCA Studios, New York
EXTT11=1957-02-23, Radio Recorders, Hollywood CA
EXTT12=1957-02-23, Radio Recorders, Hollywood CA
EXTT13=1956-09-01, Radio Recorders, Hollywood CA
EXTT14=1956-09-02, Radio Recorders, Hollywood CA
EXTT15=1958-01-16, Radio Recorders, Hollywood CA
EXTT16=1955-02-01, Sun Studio, Memphis TN
EXTT17=1960-03-21, RCA Studio B, Nashville TN
EXTT18=1955-07-11, Sun Studio, Memphis TN
EXTT19=1957-02-24, Radio Recorders, Hollywood CA
EXTT20=1956-04-14, RCA Studios, Nashville TN
EXTT21=1958-06-10, RCA Studio B, Nashville TN
EXTT22=1960-03-20, RCA Studio B, Nashville TN
EXTT23=1960-04-03, RCA Studio B, Nashville TN
EXTT24=1960-04-27, RCA Studios, Hollywood CA
EXTT25=1957-01-13, Radio Recorders, Hollywood CA
EXTT26=1954-11-15, Sun Studio, Memphis TN
EXTT27=1960-04-03, RCA Studio B, Nashville TN
EXTT28=1960-03-20, RCA Studio B, Nashville TN
EXTT29=1961-03-23, Radio Recorders, Hollywood CA
PLAYORDER=
